<?xml version="1.0" encoding="utf-8"?>
<!-- Generator: Adobe Illustrator 23.0.0, SVG Export Plug-In . SVG Version: 6.00 Build 0)  -->
<svg version="1.1" id="Ebene_1" xmlns="http://www.w3.org/2000/svg" xmlns:xlink="http://www.w3.org/1999/xlink" x="0px" y="0px"
	 viewBox="0 0 612 792" style="enable-background:new 0 0 612 792;" xml:space="preserve">
<style type="text/css">
	.st0{fill:none;}
</style>
<g>
	<path class="st0" d="M164.24,537.92c0-94.56,0-189.12,0-283.68c94.56,0,189.12,0,283.68,0c0,94.56,0,189.12,0,283.68
		C353.36,537.92,258.8,537.92,164.24,537.92z M330.89,332.9c0.37-0.22,0.58-0.43,0.83-0.49c1.99-0.47,3.65-1.61,5.35-2.64
		c2.81-1.71,5.45-3.68,7.48-6.29c1.54-1.98,2.37-4.28,2.04-6.83c-0.15-1.14-0.52-2.3-1.42-3.09c-1.47-1.29-3.2-2.11-5.15-2.33
		c-2.11-0.24-4.22-0.45-6.32,0.07c-1.2,0.3-2.41,0.55-3.62,0.79c-3.54,0.69-6.76,2.23-9.87,3.93c-5.14,2.81-9.24,6.93-13.29,11.09
		c-1.43,1.47-2.16,1.65-3.98,0.64c-0.07-0.04-0.14-0.08-0.21-0.12c-2.31-1.25-4.27-2.93-6.06-4.85c-0.62-0.67-1.4-1.23-1.89-1.99
		c-1.42-2.18-2.26-4.59-2.26-7.22c0-1.59,0.08-3.19,0.23-4.78c0.18-1.92,0.81-3.74,1.58-5.5c1.34-3.06,4.08-4.77,6.65-6.55
		c1.34-0.93,2.99-1.53,4.59-1.97c3.1-0.86,6.29-1.22,9.49-0.7c2.83,0.46,5.64,1.13,8.46,1.67c1.17,0.22,2.36,0.4,3.55,0.53
		c2.22,0.25,4.45,0.44,6.67,0.68c1.19,0.13,2.37,0.37,3.57,0.47c4.38,0.36,8.77,0.55,13.14,1.03c6.62,0.72,13.26,0.28,19.88,0.73
		c1.63,0.11,3.28-0.07,4.91-0.09c2.9-0.04,5.74-0.52,8.51-1.27c3.27-0.88,6.51-1.92,9.73-2.98c2.74-0.9,5.3-2.23,7.72-3.81
		c1.37-0.89,2.63-1.98,4.06-2.73c2.37-1.24,4.27-3.08,6.36-4.68c0.48-0.37,0.48-1.24,0.09-1.73c-0.37-0.46-1.23-0.57-1.71-0.15
		c-2.35,2-4.88,3.73-7.5,5.35c-2.37,1.46-4.86,2.64-7.53,3.33c-2.64,0.68-5.36,0.82-8.09,0.77c-3.59-0.07-7.19-0.12-10.78-0.23
		c-1.43-0.04-2.88-0.12-4.28-0.37c-4.4-0.8-8.78-1.73-13.17-2.55c-2.63-0.49-5.27-0.93-7.92-1.28c-1.7-0.22-3.42-0.26-5.13-0.35
		c-3.99-0.21-7.98-0.57-11.97-0.57c-3.26,0-6.53,0.4-9.79,0.7c-1.1,0.1-2.2,0.41-3.28,0.68c-1.23,0.32-2.43,0.75-3.67,1.05
		c-2.63,0.63-5.29,1.19-7.78,2.28c-2.77,1.22-5.5,2.54-8.2,3.89c-2.45,1.22-4.64,2.81-6.47,4.87c-2.58,2.9-3.51,6.48-4.19,10.15
		c-0.45,2.43-0.19,4.85,0.25,7.26c0.32,1.71,0.93,3.31,1.85,4.76c1.37,2.17,3.19,3.97,5.1,5.68c0.9,0.8,1.83,1.54,2.74,2.33
		c0.65,0.57,0.94,1.33,0.72,2.15c-0.23,0.88-0.71,1.55-1.79,1.67c-2.17,0.23-4.22,0.95-6.15,1.91c-2.17,1.08-4.28,2.32-6.32,3.63
		c-3.2,2.06-6.22,4.37-8.77,7.23c-3.45,3.86-6.56,7.96-8.63,12.75c-1.41,3.26-2.79,6.52-4.09,9.83c-0.63,1.59-1,3.28-1.52,4.92
		c-1.03,3.3-1.6,6.7-1.68,10.13c-0.14,6.15-0.4,12.3,0.22,18.45c0.35,3.51,1.26,6.81,2.76,9.98c1,2.13,1.89,4.31,2.82,6.47
		c0.53,1.23,0.11,2.34-0.45,3.43c-0.47,0.91-1.1,1.77-1.42,2.73c-0.56,1.68-1.49,3.03-2.85,4.16c-0.85,0.7-1.76,1.48-2.22,2.43
		c-0.57,1.15-1.52,1.88-2.3,2.79c-0.24,0.28-0.66,0.52-1.02,0.55c-0.83,0.06-1.7,0.13-2.5-0.07c-3.32-0.82-6.58-1.92-9.99-2.35
		c-2.05-0.26-4.13-0.46-6.2-0.49c-3.36-0.06-6.55,0.89-9.68,2.04c-2.72,1-5.13,2.36-6.77,4.88c-0.67,1.04-0.93,2.04-0.76,3.26
		c0.16,1.15,0.86,1.96,1.46,2.84c1.4,2.07,3.34,3.46,5.71,4.12c1.41,0.39,2.9,0.49,4.37,0.62c2.44,0.21,4.9,0.07,7.25-0.58
		c1.99-0.55,3.91-1.29,5.77-2.28c3.77-2,7.59-3.91,11.17-6.26c2.48-1.63,4.9-1.53,7.22,0.25c1.39,1.07,2.7,2.24,4.02,3.39
		c1.84,1.6,3.69,3.19,5.48,4.84c0.89,0.82,0.8,1.66-0.08,2.48c-0.2,0.19-0.45,0.33-0.66,0.52c-1.01,0.91-2.11,1.73-2.99,2.75
		c-2.48,2.87-5.01,5.7-7.03,8.94c-0.29,0.47-0.77,0.85-1,1.34c-0.73,1.63-1.36,3.31-2.08,4.95c-1.3,2.98-2.17,6.08-2.8,9.27
		c-0.63,3.21-1.47,6.39-1.28,9.71c0.01,0.16,0,0.32-0.02,0.48c-0.55,3.42,0.14,6.78,0.63,10.13c0.17,1.17,0.57,2.36,1.14,3.39
		c1.38,2.51,2.7,5.09,5.08,6.88c0.13,0.09,0.23,0.23,0.33,0.35c1.1,1.3,2.45,2.29,3.95,3.08c2.32,1.21,4.75,1.63,7.3,0.93
		c2.06-0.56,3.75-1.72,5.16-3.32c1.1-1.26,2.17-2.56,3.35-3.75c2.81-2.83,4.42-6.35,5.7-10.02c1.24-3.56,2.01-7.24,1.79-11.06
		c-0.02-0.4,0.02-0.8,0.07-1.2c0.36-2.97-0.02-5.91-0.32-8.85c-0.14-1.43-0.29-2.88-0.65-4.26c-0.72-2.78-1.58-5.53-2.38-8.29
		c-0.08-0.27-0.17-0.53-0.28-0.79c-1.64-3.88-3.78-7.47-6.27-10.87c-0.57-0.78-0.53-1.45,0.17-2.13c1.04-1,2.06-2.01,3.15-2.95
		c1.71-1.48,3.6-2.04,5.75-0.92c0.53,0.28,1.06,0.55,1.58,0.84c2.88,1.64,6.13,2.26,9.24,3.25c1.6,0.51,3.25,0.82,4.85,1.33
		c3.65,1.18,7.36,1.94,11.2,1.62c3.42-0.29,6.2-1.72,7.98-4.88c1.28-2.27,0.77-4.47-0.37-6.35c-1.55-2.55-3.99-4.33-6.61-5.77
		c-0.48-0.27-1.04-0.42-1.58-0.56c-2.42-0.65-4.87-0.65-7.37-0.51c-2.52,0.14-4.93,0.7-7.24,1.52c-2.7,0.96-5.3,2.23-7.89,3.48
		c-1.5,0.72-3.06,1.18-4.68,1.37c-0.5,0.06-1.11-0.12-1.55-0.4c-2.86-1.82-5.15-4.26-7.22-6.9c-1.46-1.85-2.8-3.8-4.28-5.63
		c-1.18-1.46-1.32-3.01-0.45-4.56c0.68-1.2,1.71-2.2,2.45-3.38c1.88-2.97,3.75-5.95,5.48-9.01c1.51-2.67,2.85-5.45,4.23-8.19
		c1.17-2.32,2.24-4.69,3.44-6.99c1.05-2.01,2.2-3.98,3.37-5.92c0.71-1.17,1.78-1.74,3.21-1.73c3.2,0.01,6.4-0.08,9.6-0.11
		c0.64-0.01,1.28-0.01,1.92,0.04c1.57,0.11,2.25,0.66,2.55,2.2c0.23,1.21,0.36,2.45,0.48,3.68c0.54,5.16,0.99,10.34,1.64,15.49
		c0.28,2.16,0.85,4.31,1.54,6.39c0.91,2.72,1.82,5.43,2.95,8.08c0.95,2.23,2.3,4.09,3.77,5.91c0.62,0.77,1.34,1.47,2.09,2.12
		c1.73,1.5,3.69,2.67,5.76,3.62c1.78,0.82,3.64,1.6,5.61,1.62c2.83,0.04,5.67-0.06,8.49-0.31c1.57-0.14,3.19-0.49,4.63-1.11
		c1.8-0.77,3.35-2.08,4.59-3.59c1.21-1.47,2.17-3.16,3.1-4.83c0.76-1.35,1.34-2.81,1.93-4.25c0.33-0.8,0.66-1.65,0.35-2.55
		c-0.35-1.03-1.43-1.3-2.18-0.51c-0.35,0.37-0.6,0.84-0.82,1.31c-0.6,1.26-1.11,2.56-1.73,3.81c-0.74,1.5-1.54,2.96-2.35,4.43
		c-0.25,0.45-0.56,0.88-0.9,1.26c-1.15,1.28-2.52,2.3-4.26,2.45c-1.82,0.16-3.67,0.14-5.5,0.06c-1.81-0.08-3.55-0.53-5.12-1.5
		c-2.55-1.58-3.63-4.11-4.17-6.87c-0.48-2.46-0.75-4.97-0.98-7.47c-0.34-3.66-0.55-7.33-0.83-10.99c-0.27-3.47-0.99-6.87-1.89-10.23
		c-1-3.74-2.01-7.47-3.73-10.97c-0.35-0.7-0.47-1.52-0.63-2.3c-0.14-0.68,0.13-1.28,0.63-1.72c0.38-0.34,0.83-0.62,1.28-0.88
		c1.27-0.75,2.59-1.43,3.82-2.24c1.83-1.21,3.56-2.57,5.39-3.78c4.8-3.18,7.27-7.79,7.99-13.34c0.42-3.3-0.03-6.63-0.7-9.89
		c-0.29-1.43-0.89-2.8-1.42-4.17c-0.33-0.85-0.72-1.69-1.18-2.48c-0.92-1.59-1.84-3.18-2.88-4.69c-0.99-1.44-2.12-2.78-3.19-4.16
		C332.48,334.88,331.71,333.92,330.89,332.9z M399.4,353.22c0.17-2.69-1.88-5.4-4.55-5.74c-1.87-0.24-3.74,0.14-5.06,1.6
		c-1.84,2.03-3.03,4.52-4.14,6.98c-1.46,3.23-2.6,6.59-3.55,10.03c-1.26,4.54-2.77,9.01-4.16,13.51
		c-1.94,6.34-3.87,12.67-5.78,19.02c-0.69,2.29-1.3,4.61-1.95,6.91c-0.61,2.15-1.29,4.28-1.82,6.45c-0.39,1.62-0.63,3.28-0.85,4.94
		c-0.05,0.36,0.17,0.88,0.44,1.15c1.11,1.08,3.26,1.07,4.01-0.25c0.34-0.59,0.82-1.1,1.1-1.71c1.68-3.58,3.36-7.16,4.98-10.77
		c1.98-4.41,3.88-8.85,5.84-13.26c0.88-1.97,1.85-3.9,2.72-5.87c1.03-2.34,1.99-4.7,3.01-7.04c1.27-2.92,2.57-5.84,3.86-8.76
		c1.21-2.74,2.37-5.5,3.65-8.2C398.5,359.37,399.2,356.36,399.4,353.22z M365.55,426c-0.21,0.02-0.69,0.02-1.16,0.1
		c-0.43,0.07-0.86,0.2-1.27,0.35c-4.7,1.67-6.07,7.52-2.56,10.89c2.57,2.46,6.61,2.75,9.46,0.61c1.96-1.48,2.94-3.48,2.64-5.95
		C372.25,428.55,369.37,426.07,365.55,426z"/>
	<path d="M330.89,332.9c0.82,1.03,1.59,1.98,2.34,2.94c1.08,1.38,2.21,2.72,3.19,4.16c1.04,1.51,1.96,3.1,2.88,4.69
		c0.46,0.79,0.86,1.63,1.18,2.48c0.53,1.37,1.13,2.74,1.42,4.17c0.66,3.26,1.12,6.59,0.7,9.89c-0.71,5.55-3.19,10.16-7.99,13.34
		c-1.83,1.21-3.56,2.57-5.39,3.78c-1.23,0.82-2.55,1.49-3.82,2.24c-0.44,0.26-0.89,0.54-1.28,0.88c-0.5,0.45-0.78,1.04-0.63,1.72
		c0.16,0.78,0.29,1.6,0.63,2.3c1.72,3.5,2.73,7.23,3.73,10.97c0.9,3.36,1.62,6.75,1.89,10.23c0.29,3.66,0.5,7.33,0.83,10.99
		c0.23,2.5,0.5,5.01,0.98,7.47c0.54,2.75,1.62,5.29,4.17,6.87c1.57,0.97,3.31,1.42,5.12,1.5c1.83,0.08,3.68,0.11,5.5-0.06
		c1.74-0.15,3.11-1.17,4.26-2.45c0.34-0.38,0.65-0.81,0.9-1.26c0.8-1.46,1.61-2.93,2.35-4.43c0.62-1.25,1.13-2.55,1.73-3.81
		c0.22-0.46,0.47-0.94,0.82-1.31c0.75-0.79,1.83-0.52,2.18,0.51c0.31,0.9-0.02,1.75-0.35,2.55c-0.59,1.44-1.18,2.89-1.93,4.25
		c-0.93,1.67-1.89,3.36-3.1,4.83c-1.24,1.5-2.79,2.82-4.59,3.59c-1.44,0.62-3.06,0.97-4.63,1.11c-2.82,0.25-5.66,0.35-8.49,0.31
		c-1.97-0.03-3.83-0.81-5.61-1.62c-2.07-0.95-4.03-2.12-5.76-3.62c-0.75-0.65-1.47-1.35-2.09-2.12c-1.47-1.83-2.81-3.69-3.77-5.91
		c-1.13-2.65-2.04-5.37-2.95-8.08c-0.69-2.07-1.27-4.23-1.54-6.39c-0.66-5.15-1.1-10.33-1.64-15.49c-0.13-1.23-0.25-2.47-0.48-3.68
		c-0.29-1.54-0.98-2.09-2.55-2.2c-0.64-0.05-1.28-0.05-1.92-0.04c-3.2,0.04-6.4,0.12-9.6,0.11c-1.43,0-2.5,0.56-3.21,1.73
		c-1.17,1.95-2.32,3.91-3.37,5.92c-1.21,2.3-2.28,4.67-3.44,6.99c-1.38,2.75-2.72,5.52-4.23,8.19c-1.73,3.06-3.61,6.03-5.48,9.01
		c-0.74,1.18-1.77,2.18-2.45,3.38c-0.88,1.55-0.74,3.1,0.45,4.56c1.48,1.83,2.82,3.78,4.28,5.63c2.08,2.64,4.37,5.08,7.22,6.9
		c0.43,0.28,1.05,0.46,1.55,0.4c1.63-0.19,3.18-0.64,4.68-1.37c2.59-1.25,5.19-2.51,7.89-3.48c2.32-0.83,4.73-1.39,7.24-1.52
		c2.5-0.14,4.95-0.14,7.37,0.51c0.54,0.14,1.09,0.3,1.58,0.56c2.62,1.44,5.06,3.22,6.61,5.77c1.15,1.89,1.65,4.08,0.37,6.35
		c-1.78,3.16-4.56,4.59-7.98,4.88c-3.83,0.32-7.55-0.44-11.2-1.62c-1.59-0.52-3.25-0.82-4.85-1.33c-3.11-0.99-6.36-1.61-9.24-3.25
		c-0.52-0.3-1.05-0.57-1.58-0.84c-2.14-1.12-4.04-0.56-5.75,0.92c-1.09,0.94-2.11,1.95-3.15,2.95c-0.71,0.68-0.74,1.35-0.17,2.13
		c2.49,3.39,4.63,6.99,6.27,10.87c0.11,0.26,0.21,0.52,0.28,0.79c0.8,2.76,1.66,5.51,2.38,8.29c0.36,1.38,0.51,2.83,0.65,4.26
		c0.29,2.94,0.68,5.88,0.32,8.85c-0.05,0.4-0.09,0.8-0.07,1.2c0.22,3.82-0.55,7.49-1.79,11.06c-1.28,3.67-2.89,7.19-5.7,10.02
		c-1.18,1.19-2.25,2.49-3.35,3.75c-1.4,1.6-3.1,2.76-5.16,3.32c-2.55,0.69-4.99,0.28-7.3-0.93c-1.5-0.79-2.85-1.78-3.95-3.08
		c-0.1-0.12-0.2-0.25-0.33-0.35c-2.38-1.78-3.7-4.37-5.08-6.88c-0.57-1.03-0.97-2.23-1.14-3.39c-0.5-3.35-1.18-6.71-0.63-10.13
		c0.03-0.16,0.03-0.32,0.02-0.48c-0.18-3.32,0.65-6.5,1.28-9.71c0.63-3.19,1.5-6.29,2.8-9.27c0.72-1.64,1.34-3.32,2.08-4.95
		c0.22-0.5,0.7-0.87,1-1.34c2.02-3.24,4.55-6.07,7.03-8.94c0.88-1.02,1.98-1.84,2.99-2.75c0.21-0.19,0.46-0.33,0.66-0.52
		c0.88-0.81,0.96-1.65,0.08-2.48c-1.79-1.66-3.64-3.25-5.48-4.84c-1.32-1.15-2.63-2.32-4.02-3.39c-2.32-1.78-4.75-1.87-7.22-0.25
		c-3.58,2.35-7.4,4.26-11.17,6.26c-1.86,0.99-3.79,1.73-5.77,2.28c-2.35,0.65-4.81,0.79-7.25,0.58c-1.47-0.13-2.96-0.23-4.37-0.62
		c-2.37-0.66-4.31-2.05-5.71-4.12c-0.6-0.89-1.3-1.69-1.46-2.84c-0.17-1.22,0.08-2.22,0.76-3.26c1.64-2.52,4.05-3.88,6.77-4.88
		c3.13-1.15,6.31-2.1,9.68-2.04c2.07,0.04,4.14,0.23,6.2,0.49c3.41,0.43,6.67,1.53,9.99,2.35c0.79,0.2,1.67,0.13,2.5,0.07
		c0.36-0.03,0.78-0.27,1.02-0.55c0.78-0.91,1.73-1.64,2.3-2.79c0.47-0.95,1.38-1.73,2.22-2.43c1.36-1.13,2.29-2.48,2.85-4.16
		c0.32-0.96,0.95-1.82,1.42-2.73c0.56-1.09,0.97-2.2,0.45-3.43c-0.93-2.16-1.82-4.35-2.82-6.47c-1.5-3.17-2.4-6.48-2.76-9.98
		c-0.62-6.15-0.36-12.3-0.22-18.45c0.08-3.44,0.65-6.83,1.68-10.13c0.51-1.64,0.89-3.33,1.52-4.92c1.3-3.3,2.68-6.57,4.09-9.83
		c2.07-4.79,5.18-8.9,8.63-12.75c2.55-2.85,5.56-5.17,8.77-7.23c2.04-1.31,4.15-2.55,6.32-3.63c1.92-0.96,3.98-1.68,6.15-1.91
		c1.08-0.11,1.55-0.79,1.79-1.67c0.22-0.82-0.07-1.58-0.72-2.15c-0.9-0.79-1.84-1.54-2.74-2.33c-1.91-1.7-3.73-3.5-5.1-5.68
		c-0.92-1.45-1.54-3.06-1.85-4.76c-0.44-2.41-0.71-4.83-0.25-7.26c0.69-3.67,1.61-7.25,4.19-10.15c1.83-2.06,4.02-3.65,6.47-4.87
		c2.71-1.35,5.44-2.67,8.2-3.89c2.48-1.09,5.15-1.65,7.78-2.28c1.23-0.3,2.44-0.73,3.67-1.05c1.08-0.28,2.17-0.58,3.28-0.68
		c3.26-0.3,6.52-0.69,9.79-0.7c3.99,0,7.98,0.35,11.97,0.57c1.71,0.09,3.44,0.13,5.13,0.35c2.65,0.35,5.29,0.79,7.92,1.28
		c4.4,0.82,8.77,1.75,13.17,2.55c1.4,0.26,2.85,0.33,4.28,0.37c3.59,0.11,7.19,0.16,10.78,0.23c2.72,0.05,5.45-0.09,8.09-0.77
		c2.68-0.69,5.17-1.87,7.53-3.33c2.62-1.62,5.15-3.35,7.5-5.35c0.49-0.41,1.34-0.31,1.71,0.15c0.39,0.49,0.4,1.36-0.09,1.73
		c-2.09,1.6-3.98,3.44-6.36,4.68c-1.44,0.75-2.7,1.84-4.06,2.73c-2.42,1.58-4.98,2.91-7.72,3.81c-3.22,1.06-6.45,2.1-9.73,2.98
		c-2.78,0.75-5.62,1.22-8.51,1.27c-1.64,0.02-3.29,0.2-4.91,0.09c-6.62-0.45-13.27,0-19.88-0.73c-4.36-0.48-8.76-0.67-13.14-1.03
		c-1.19-0.1-2.37-0.34-3.57-0.47c-2.22-0.24-4.45-0.43-6.67-0.68c-1.19-0.13-2.37-0.31-3.55-0.53c-2.82-0.54-5.62-1.2-8.46-1.67
		c-3.2-0.52-6.4-0.16-9.49,0.7c-1.6,0.44-3.24,1.04-4.59,1.97c-2.57,1.78-5.3,3.48-6.65,6.55c-0.77,1.76-1.41,3.58-1.58,5.5
		c-0.15,1.59-0.23,3.19-0.23,4.78c0.01,2.63,0.84,5.04,2.26,7.22c0.49,0.75,1.26,1.32,1.89,1.99c1.78,1.91,3.75,3.59,6.06,4.85
		c0.07,0.04,0.14,0.08,0.21,0.12c1.82,1.02,2.55,0.83,3.98-0.64c4.04-4.16,8.14-8.28,13.29-11.09c3.11-1.7,6.33-3.24,9.87-3.93
		c1.21-0.24,2.42-0.49,3.62-0.79c2.11-0.52,4.22-0.31,6.32-0.07c1.96,0.22,3.68,1.04,5.15,2.33c0.91,0.8,1.28,1.96,1.42,3.09
		c0.33,2.55-0.5,4.86-2.04,6.83c-2.03,2.61-4.67,4.58-7.48,6.29c-1.7,1.04-3.36,2.17-5.35,2.64
		C331.47,332.46,331.26,332.67,330.89,332.9z M263.88,394.1c0.17,2.67,0.31,5.58,0.57,8.49c0.28,3.12,0.94,6.15,2.5,8.93
		c0.37,0.65,0.53,1.43,0.92,2.06c0.51,0.83,1.05,1.7,1.78,2.34c0.8,0.7,1.68,0.42,2.18-0.54c1.06-2.05,2.21-4.08,3.08-6.21
		c1.68-4.14,3.28-8.31,4.74-12.53c1.35-3.88,2.48-7.83,3.68-11.76c0.39-1.27,0.13-1.96-0.9-2.78c-0.5-0.4-1-0.8-1.45-1.26
		c-1.35-1.39-2.16-3.05-2.25-5.01c-0.04-0.84,0.02-1.68,0.09-2.51c0.22-2.3,0.94-4.4,2.89-5.81c1.7-1.23,3.56-2.11,5.77-1.99
		c1.72,0.09,2.29-0.39,2.78-2c0.27-0.88,0.62-1.73,0.91-2.6c1.29-3.9,2.57-7.81,3.86-11.71c0.93-2.81,1.87-5.61,2.78-8.42
		c0.34-1.06,0.75-2.12,0.91-3.21c0.18-1.2-0.77-1.96-1.87-1.57c-1.24,0.44-2.48,0.91-3.64,1.53c-3.3,1.79-6.54,3.7-9.36,6.22
		c-1.19,1.06-2.39,2.11-3.53,3.22c-0.69,0.67-1.27,1.44-1.9,2.16c-2.93,3.32-5.35,6.99-7.26,10.96c-1.4,2.91-2.44,5.98-3.63,8.99
		c-0.6,1.52-1.33,3.01-1.74,4.59c-0.82,3.16-1.47,6.36-1.5,9.67C264.27,386.83,264.03,390.34,263.88,394.1z M283.34,484.77
		c-0.39-3.44,0.26-6.82-0.46-10.21c-0.34-1.64-0.28-3.41-0.69-5.08c-0.26-1.05-0.67-2.08-0.76-3.14c-0.23-2.61-1.3-4.94-2.33-7.26
		c-0.54-1.21-1.41-2.3-2.25-3.35c-0.72-0.88-1.19-0.92-2.2-0.31c-0.84,0.52-1.64,1.14-2.39,1.79c-3.47,3.02-5.8,6.95-7.85,10.94
		c-2.29,4.46-4.19,9.15-4.77,14.23c-0.18,1.58-0.66,3.14-0.76,4.73c-0.33,5.37,0.34,10.6,2.34,15.63c1.52,3.82,4.01,6.78,7.71,8.65
		c1.23,0.62,2.57,1.13,3.92,0.57c1.62-0.67,3.13-1.58,4.18-3.09c3.18-4.56,5.45-9.51,5.99-15.08
		C283.33,490.79,283.25,487.74,283.34,484.77z M328.8,354.48c0.01-3.86-0.93-7.5-2.34-11.08c-1.45-3.67-4.06-6.15-7.38-8.02
		c-0.54-0.31-1.18-0.51-1.8-0.6c-2.77-0.41-3.65,0.16-4.56,2.8c-0.82,2.38-1.66,4.75-2.53,7.12c-0.45,1.24-1.04,2.43-1.46,3.68
		c-1.75,5.27-3.46,10.55-5.18,15.83c-0.09,0.26-0.13,0.54-0.18,0.82c-0.12,0.66,0.05,1.21,0.66,1.53c1.2,0.61,2.38,1.31,3.64,1.77
		c2.64,0.95,5.26,1.92,7.49,3.69c1.03,0.82,2.02,1.7,3.03,2.54c1.09,0.9,2.16,0.93,3.24-0.01c0.9-0.79,1.76-1.63,2.55-2.53
		c2.09-2.41,3.06-5.38,3.93-8.37C328.78,360.64,328.69,357.54,328.8,354.48z M320.29,330.19c1.75-0.13,3.28-0.17,4.78-0.38
		c1.62-0.23,3.26-0.47,4.81-0.95c3.74-1.15,7.41-2.51,10.44-5.12c1.48-1.28,2.85-2.68,3.71-4.49c0.9-1.88,0.64-3.7-0.94-4.68
		c-1.09-0.68-2.38-1.3-3.63-1.42c-2.83-0.28-5.64-0.02-8.39,0.93c-3.25,1.12-6.21,2.73-9,4.69c-2.91,2.05-5.35,4.55-7.06,7.71
		c-1.01,1.87-0.42,3.07,1.71,3.38C317.97,330.03,319.25,330.1,320.29,330.19z M315.49,450.46c0.68,0,1.36,0.03,2.04,0
		c2.27-0.1,3.76-1.52,4.9-3.23c0.97-1.44,0.44-4.57-1-5.8c-1.35-1.15-2.87-2.18-4.47-2.95c-1.94-0.93-4.06-1.31-6.27-1.35
		c-2.7-0.04-5.35,0.09-7.93,0.93c-0.72,0.23-1.43,0.53-2.17,0.66c-2.94,0.51-5.45,1.98-7.93,3.5c-1,0.62-0.89,1.85,0.14,2.44
		c0.21,0.12,0.44,0.2,0.66,0.27c4.04,1.36,8.08,2.74,12.13,4.08C308.81,450.08,312.14,450.38,315.49,450.46z M233.55,446.73
		c0-0.01,0-0.03,0-0.04c0.56,0,1.12,0.03,1.68,0c3.18-0.17,6.29-0.69,9.08-2.32c2.86-1.67,5.7-3.39,8.53-5.12
		c1.27-0.78,1.23-2.14-0.09-2.85c-1.31-0.71-2.72-1.12-4.2-1.32c-2.05-0.29-4.02-1.04-6.13-1.01c-0.76,0.01-1.52-0.06-2.27-0.14
		c-2.13-0.22-4.23-0.19-6.29,0.47c-0.53,0.17-1.09,0.24-1.63,0.38c-3.33,0.89-6.02,2.7-7.96,5.59c-0.5,0.75-0.53,1.49,0.01,2.23
		c1.11,1.5,2.46,2.73,4.17,3.51c0.75,0.34,1.56,0.66,2.37,0.75C231.7,446.95,232.63,446.78,233.55,446.73z M284.17,442.57
		c-0.15-0.32-0.21-0.66-0.42-0.88c-0.7-0.76-1.46-1.45-2.16-2.21c-2.18-2.38-4.34-4.79-6.52-7.18c-0.51-0.56-1.02-1.12-1.57-1.63
		c-0.86-0.79-1.49-0.86-2.48-0.23c-2.17,1.39-3.98,3.21-5.76,5.04c-0.59,0.61-0.55,1.29,0.02,1.94c0.52,0.6,1.07,1.19,1.67,1.72
		c3.19,2.78,6.4,5.52,9.59,8.3c0.71,0.62,1.47,0.86,2.3,0.37c0.92-0.54,1.86-1.09,2.66-1.78c0.84-0.73,1.53-1.62,2.25-2.48
		C283.95,443.31,284.02,442.92,284.17,442.57z M302.51,385.42c0-0.04,0-0.07,0-0.11c1.16,0,2.32,0.04,3.47-0.02
		c0.54-0.03,1.13-0.16,1.58-0.44c2.63-1.66,3.59-4.62,2.33-7.51c-1.41-3.23-4.2-4.88-7.4-5.95c-0.65-0.22-1.33-0.03-1.67,0.61
		c-0.66,1.26-1.37,2.53-1.81,3.87c-0.75,2.31-1.29,4.68-1.93,7.02c-0.45,1.62,0.13,2.45,1.84,2.51
		C300.12,385.45,301.31,385.42,302.51,385.42z M286.42,368.62c-1.85,0.29-3.77,0.69-4.57,2.69c-0.76,1.9-1.03,3.94-0.28,5.95
		c0.21,0.55,0.51,1.09,0.88,1.56c0.87,1.11,2.05,0.98,2.64-0.29c0.62-1.34,1.21-2.7,1.71-4.09c0.47-1.27,0.85-2.58,1.19-3.89
		C288.27,369.46,287.58,368.65,286.42,368.62z"/>
	<path d="M399.4,353.22c-0.2,3.14-0.9,6.14-2.25,9.01c-1.28,2.71-2.44,5.47-3.65,8.2c-1.29,2.92-2.59,5.83-3.86,8.76
		c-1.02,2.34-1.98,4.71-3.01,7.04c-0.87,1.97-1.84,3.9-2.72,5.87c-1.96,4.41-3.87,8.86-5.84,13.26c-1.62,3.61-3.29,7.19-4.98,10.77
		c-0.29,0.61-0.76,1.12-1.1,1.71c-0.75,1.31-2.9,1.33-4.01,0.25c-0.27-0.27-0.49-0.79-0.44-1.15c0.22-1.66,0.45-3.32,0.85-4.94
		c0.53-2.17,1.21-4.3,1.82-6.45c0.65-2.3,1.26-4.62,1.95-6.91c1.91-6.35,3.84-12.68,5.78-19.02c1.38-4.51,2.9-8.97,4.16-13.51
		c0.95-3.44,2.1-6.8,3.55-10.03c1.11-2.46,2.31-4.95,4.14-6.98c1.32-1.46,3.19-1.84,5.06-1.6
		C397.52,347.82,399.57,350.54,399.4,353.22z"/>
	<path d="M365.55,426c3.82,0.08,6.7,2.55,7.11,6c0.29,2.47-0.68,4.47-2.64,5.95c-2.85,2.14-6.89,1.86-9.46-0.61
		c-3.51-3.37-2.14-9.21,2.56-10.89c0.41-0.15,0.84-0.27,1.27-0.35C364.86,426.02,365.34,426.01,365.55,426z"/>
	<path class="st0" d="M263.88,394.1c0.15-3.76,0.39-7.27,0.42-10.79c0.02-3.31,0.67-6.51,1.5-9.67c0.41-1.57,1.13-3.07,1.74-4.59
		c1.19-3.01,2.24-6.08,3.63-8.99c1.91-3.97,4.33-7.64,7.26-10.96c0.63-0.72,1.22-1.49,1.9-2.16c1.14-1.11,2.34-2.16,3.53-3.22
		c2.82-2.52,6.06-4.43,9.36-6.22c1.15-0.62,2.4-1.09,3.64-1.53c1.1-0.39,2.05,0.37,1.87,1.57c-0.16,1.09-0.56,2.15-0.91,3.21
		c-0.91,2.81-1.85,5.61-2.78,8.42c-1.29,3.9-2.57,7.81-3.86,11.71c-0.29,0.87-0.64,1.72-0.91,2.6c-0.49,1.6-1.06,2.08-2.78,2
		c-2.21-0.11-4.06,0.76-5.77,1.99c-1.95,1.41-2.67,3.51-2.89,5.81c-0.08,0.83-0.13,1.68-0.09,2.51c0.09,1.96,0.9,3.62,2.25,5.01
		c0.44,0.46,0.95,0.86,1.45,1.26c1.03,0.82,1.29,1.51,0.9,2.78c-1.2,3.93-2.34,7.88-3.68,11.76c-1.46,4.22-3.06,8.4-4.74,12.53
		c-0.87,2.14-2.02,4.16-3.08,6.21c-0.5,0.96-1.38,1.24-2.18,0.54c-0.72-0.63-1.26-1.5-1.78-2.34c-0.39-0.64-0.55-1.41-0.92-2.06
		c-1.56-2.78-2.22-5.81-2.5-8.93C264.18,399.69,264.05,396.77,263.88,394.1z"/>
	<path class="st0" d="M283.34,484.77c-0.09,2.97-0.02,6.02-0.31,9.03c-0.54,5.57-2.82,10.52-5.99,15.08
		c-1.05,1.51-2.55,2.42-4.18,3.09c-1.35,0.55-2.69,0.04-3.92-0.57c-3.7-1.86-6.19-4.82-7.71-8.65c-2-5.03-2.67-10.27-2.34-15.63
		c0.1-1.58,0.58-3.14,0.76-4.73c0.58-5.09,2.47-9.78,4.77-14.23c2.05-3.99,4.37-7.92,7.85-10.94c0.75-0.65,1.54-1.27,2.39-1.79
		c1-0.61,1.48-0.58,2.2,0.31c0.85,1.04,1.72,2.13,2.25,3.35c1.03,2.32,2.11,4.65,2.33,7.26c0.09,1.06,0.51,2.09,0.76,3.14
		c0.41,1.67,0.34,3.44,0.69,5.08C283.6,477.95,282.95,481.33,283.34,484.77z"/>
	<path class="st0" d="M328.8,354.48c-0.11,3.06-0.02,6.16-0.89,9.15c-0.87,2.99-1.84,5.96-3.93,8.37c-0.78,0.9-1.65,1.75-2.55,2.53
		c-1.08,0.94-2.15,0.91-3.24,0.01c-1.02-0.84-2-1.72-3.03-2.54c-2.23-1.77-4.85-2.74-7.49-3.69c-1.26-0.45-2.44-1.15-3.64-1.77
		c-0.62-0.31-0.79-0.87-0.66-1.53c0.05-0.27,0.1-0.55,0.18-0.82c1.72-5.28,3.43-10.56,5.18-15.83c0.41-1.25,1-2.44,1.46-3.68
		c0.86-2.36,1.7-4.74,2.53-7.12c0.91-2.64,1.79-3.21,4.56-2.8c0.62,0.09,1.26,0.3,1.8,0.6c3.32,1.87,5.94,4.35,7.38,8.02
		C327.87,346.98,328.81,350.61,328.8,354.48z"/>
	<path class="st0" d="M320.29,330.19c-1.04-0.1-2.32-0.16-3.58-0.34c-2.13-0.31-2.73-1.5-1.71-3.38c1.71-3.16,4.15-5.66,7.06-7.71
		c2.79-1.96,5.75-3.57,9-4.69c2.75-0.95,5.56-1.21,8.39-0.93c1.25,0.12,2.54,0.75,3.63,1.42c1.59,0.99,1.85,2.8,0.94,4.68
		c-0.86,1.81-2.23,3.21-3.71,4.49c-3.03,2.62-6.7,3.97-10.44,5.12c-1.56,0.48-3.19,0.73-4.81,0.95
		C323.57,330.02,322.04,330.06,320.29,330.19z"/>
	<path class="st0" d="M315.49,450.46c-3.35-0.07-6.69-0.38-9.9-1.44c-4.05-1.34-8.09-2.72-12.13-4.08
		c-0.23-0.08-0.46-0.16-0.66-0.27c-1.02-0.58-1.14-1.82-0.14-2.44c2.48-1.52,4.99-2.99,7.93-3.5c0.74-0.13,1.45-0.42,2.17-0.66
		c2.58-0.84,5.23-0.98,7.93-0.93c2.2,0.03,4.33,0.42,6.27,1.35c1.6,0.76,3.12,1.79,4.47,2.95c1.44,1.23,1.96,4.36,1,5.8
		c-1.15,1.71-2.64,3.12-4.9,3.23C316.85,450.48,316.17,450.46,315.49,450.46z"/>
	<path class="st0" d="M233.55,446.73c-0.92,0.05-1.85,0.22-2.75,0.12c-0.81-0.09-1.62-0.41-2.37-0.75
		c-1.71-0.78-3.06-2.01-4.17-3.51c-0.54-0.73-0.51-1.48-0.01-2.23c1.94-2.88,4.63-4.7,7.96-5.59c0.54-0.14,1.1-0.21,1.63-0.38
		c2.06-0.66,4.16-0.7,6.29-0.47c0.75,0.08,1.52,0.15,2.27,0.14c2.11-0.04,4.08,0.72,6.13,1.01c1.49,0.21,2.89,0.62,4.2,1.32
		c1.31,0.71,1.36,2.07,0.09,2.85c-2.83,1.73-5.66,3.45-8.53,5.12c-2.8,1.63-5.9,2.15-9.08,2.32c-0.56,0.03-1.12,0-1.68,0
		C233.55,446.7,233.55,446.72,233.55,446.73z"/>
	<path class="st0" d="M284.17,442.57c-0.15,0.35-0.21,0.73-0.43,0.99c-0.71,0.86-1.41,1.75-2.25,2.48c-0.8,0.7-1.74,1.24-2.66,1.78
		c-0.83,0.48-1.59,0.25-2.3-0.37c-3.19-2.78-6.4-5.52-9.59-8.3c-0.6-0.52-1.15-1.11-1.67-1.72c-0.56-0.65-0.6-1.33-0.02-1.94
		c1.78-1.84,3.59-3.65,5.76-5.04c0.99-0.63,1.62-0.57,2.48,0.23c0.56,0.51,1.07,1.07,1.57,1.63c2.18,2.39,4.34,4.79,6.52,7.18
		c0.69,0.76,1.46,1.45,2.16,2.21C283.95,441.91,284.02,442.25,284.17,442.57z"/>
	<path class="st0" d="M302.51,385.42c-1.2,0-2.39,0.03-3.59-0.01c-1.71-0.06-2.29-0.88-1.84-2.51c0.65-2.34,1.19-4.72,1.93-7.02
		c0.44-1.35,1.15-2.61,1.81-3.87c0.33-0.64,1.02-0.83,1.67-0.61c3.19,1.07,5.99,2.72,7.4,5.95c1.26,2.89,0.3,5.85-2.33,7.51
		c-0.44,0.28-1.04,0.41-1.58,0.44c-1.15,0.06-2.31,0.02-3.47,0.02C302.51,385.35,302.51,385.39,302.51,385.42z"/>
	<path class="st0" d="M286.42,368.62c1.16,0.03,1.85,0.84,1.57,1.93c-0.33,1.31-0.72,2.62-1.19,3.89c-0.51,1.39-1.1,2.75-1.71,4.09
		c-0.59,1.27-1.77,1.4-2.64,0.29c-0.37-0.46-0.67-1.01-0.88-1.56c-0.75-2.01-0.48-4.04,0.28-5.95
		C282.65,369.31,284.57,368.91,286.42,368.62z"/>
</g>
</svg>
